<svg id="Capa_1" data-name="Capa 1" xmlns="http://www.w3.org/2000/svg" viewBox="0 0 371.3549 67.1819"><defs><style>.cls-1{fill:#f3d800;}.cls-2,.cls-3{fill:#1d1d1b;}.cls-3{font-size:37.4548px;font-family:FranklinGothic-Heavy, Franklin Gothic Heavy;font-weight:800;}.cls-4{letter-spacing:-0.0151em;}</style></defs><title>Mesa de trabajo 6Jumbo</title><rect class="cls-1" width="371.3549" height="67.1819" rx="19.2471"/><path class="cls-2" d="M356.0494,0H15.3054A15.3054,15.3054,0,0,0,0,15.3054V51.8765A15.3055,15.3055,0,0,0,15.3054,67.1819h340.744a15.3055,15.3055,0,0,0,15.3055-15.3054V15.3054A15.3054,15.3054,0,0,0,356.0494,0Zm12.6132,49.72a15.3054,15.3054,0,0,1-15.3054,15.3054H17.9977A15.3054,15.3054,0,0,1,2.6923,49.72V17.4614A15.3054,15.3054,0,0,1,17.9977,2.156H353.3572a15.3054,15.3054,0,0,1,15.3054,15.3054Z"/><text class="cls-3" transform="translate(114.3888 46.4576)">L<tspan class="cls-4" x="20.1719" y="0">A</tspan><tspan x="43.4902" y="0">UNCH</tspan></text></svg>