<svg id="Capa_1" data-name="Capa 1" xmlns="http://www.w3.org/2000/svg" viewBox="0 0 1400 642.0323"><defs><style>.cls-1{fill:#f3d800;}.cls-2{fill:#fff;}.cls-3,.cls-4{fill:#1d1d1b;}.cls-4{font-size:28.9254px;font-family:FranklinGothic-Heavy, Franklin Gothic Heavy;font-weight:800;}.cls-5{letter-spacing:0.0078em;}.cls-6{letter-spacing:0em;}.cls-7{letter-spacing:-0.0058em;}.cls-8{letter-spacing:-0.0078em;}.cls-9{fill:#f39205;}.cls-10{fill:#231f20;}.cls-11{fill:#120a0b;}.cls-12{fill:#0d0405;}.cls-13{fill:#0a0607;}.cls-14{fill:#10090a;}.cls-15{fill:#0b0707;}</style></defs><title>Mesa de trabajo 4login</title><rect class="cls-1" width="1399.9973" height="642.032"/><path class="cls-2" d="M438.0539,204.27v73.0813H415.6208V248.9213H398.488v28.4295H376.0551V204.27H398.488V231.146h17.1328V204.27Z"/><path class="cls-2" d="M505.7276,259.8971v17.4537H450.7427V204.27h54.9849v16.8649h-32.98v10.6009H499.41v16.2221H472.7473v11.94Z"/><path class="cls-2" d="M577.0956,277.3508h-18.257l-20.0153-32.29a123.1258,123.1258,0,0,1-7.7716-15.0925,50.8674,50.8674,0,0,1,1.7668,11.9933v35.39H514.6152V204.27h21.2016l17.0272,26.7679a103.24,103.24,0,0,1,7.7079,14.0292A106.312,106.312,0,0,1,558.8386,225.9V204.27h18.257Z"/><path class="cls-2" d="M654.8885,277.3508H630.02L619.3451,249.403h-7.074v27.9478H589.8382V204.27h38.1735q12.6348,0,19.6224,5.9161a19.4463,19.4463,0,0,1,6.9868,15.6066,23.4666,23.4666,0,0,1-2.57,11.1631q-2.57,4.8465-10.3868,8.54ZM612.2711,233.77h9.5837a11.79,11.79,0,0,0,6.8-1.7668,5.8989,5.8989,0,0,0,2.57-5.1933q0-7.0132-8.62-7.0138H612.2711Z"/><path class="cls-2" d="M723.9683,204.27l-22.875,42.1357v30.9456h-21.791V246.4052L654.7146,204.27h24.5475l12.8095,24.09,12.28-24.09Z"/><path class="cls-3" d="M818.8533,204.2733,799.47,277.3544H780.6234L770.4,237.0392l-9.6547,40.3152H741.0967l-19.4176-73.0811h21.1087l10.2229,42.0624,9.9728-42.0624h17.6116l10.8492,42.1448,10.2389-42.1448Z"/><path class="cls-3" d="M862.738,277.3544l-4.13-14.4018H839.03l-4.3878,14.4018H816.4308l22.561-73.0811H862.71l22.9208,73.0811Zm-19.8941-30.3568h11.824l-5.9127-21.2Z"/><path class="cls-3" d="M1022.9994,259.9007v17.4537H968.0143V204.2733h54.9851v16.8649H990.0189v10.6007h26.6627v16.2226H990.0189v11.9392Z"/><path class="cls-3" d="M944.1893,245.4984q7.8162-3.6939,10.3865-8.54a23.4651,23.4651,0,0,0,2.57-11.1629,19.4475,19.4475,0,0,0-6.9868-15.6066q-6.9872-5.9151-19.6224-5.9161H892.363v73.0811h22.4329V249.4071H921.87l10.6742,27.9473h24.8692Zm-6.127-18.7119a7.6094,7.6094,0,0,1-7.6094,7.6093h-15.434c-1.8505,2.7633-4.9982,5.5945-9.9432,8.3893a23.4933,23.4933,0,0,0,5.0222-9.3016,7.6072,7.6072,0,0,1-3.9949-6.697h0a7.5994,7.5994,0,0,1,3.78-6.5682,32.2534,32.2534,0,0,0-4.8074-9.43,34.7757,34.7757,0,0,1,9.0834,8.3893h16.2938a7.6094,7.6094,0,0,1,7.6094,7.6094Z"/><path class="cls-3" d="M727.271,225.3193c-178.8336,6.1512-356.1515,21.675-351.176,20.85v19.38c87.2249-15.7394,235.46-25.565,353.7075-30.702l-2.5315-9.5279Z"/><path class="cls-3" d="M849.7282,222.8682c-39.4393.1023-80.989,1.0247-122.4572,2.4511l2.5315,9.5279c83.2876-3.6182,152.5526-4.9328,177.1047-4.6558l-.8008-3.5859.8615-3.3386Z"/><rect class="cls-3" x="467.1712" y="159.9947" width="464.6498" height="26.3226"/><text class="cls-4" transform="translate(437.4516 362.9911)">THE BE<tspan class="cls-5" x="92.8213" y="0">S</tspan><tspan class="cls-6" x="110.6167" y="0">T E-MARKET </tspan><tspan class="cls-7" x="275.624" y="0">F</tspan><tspan x="291.2734" y="0">OR ELECT</tspan><tspan class="cls-8" x="419.5029" y="0">R</tspan><tspan x="439.2334" y="0">ONICS</tspan></text><rect class="cls-3" x="467.1712" y="369.5965" width="464.6498" height="4.4516"/><rect class="cls-3" x="26.9542" y="24.4997" width="30.9677" height="593.0323"/><path class="cls-3" d="M533.2764,131.75V149.579h-5.4726v-6.9355h-4.18v6.9355h-5.4726V131.75h5.4726v6.5566h4.18V131.75Z"/><path class="cls-3" d="M541.8449,131.75V149.579h-5.4726V131.75Z"/><path class="cls-3" d="M560.3533,139.5876v9.9914h-2.6776a10.6879,10.6879,0,0,0-.7186-1.8676,5.8289,5.8289,0,0,1-4.9113,2.1422,7.3645,7.3645,0,0,1-5.6685-2.41,9.2525,9.2525,0,0,1-2.22-6.5243,10.5137,10.5137,0,0,1,2.1486-6.72,7.65,7.65,0,0,1,6.3935-2.7234,7.7618,7.7618,0,0,1,5.133,1.62,7.6267,7.6267,0,0,1,2.521,4.5974l-5.3031.522q-.3915-2.7821-2.4424-2.7814-2.6913,0-2.6906,5.1195,0,3.0972.8616,4.0819a2.6789,2.6789,0,0,0,2.09.986,2.5049,2.5049,0,0,0,1.6916-.6007,2.092,2.092,0,0,0,.7121-1.6459H552.32v-3.7867Z"/><path class="cls-3" d="M578.3648,131.75V149.579h-5.4726v-6.9355h-4.18v6.9355H563.24V131.75h5.4726v6.5566h4.18V131.75Z"/><path class="cls-3" d="M601.5621,145.3206v4.2584h-13.414V131.75h13.414v4.1141h-8.0458v2.5868h6.5043v3.9569h-6.5043v2.9129Z"/><path class="cls-3" d="M613.561,149.579l-1.0079-3.5135h-4.7753l-1.0711,3.5135h-4.4428l5.5049-17.8291h5.7858l5.5911,17.8291Zm-4.8526-7.4059h2.8845l-1.4423-5.1723Z"/><path class="cls-3" d="M636.6578,149.579H630.591l-2.6035-6.8182h-1.7258v6.8182h-5.4726V131.75h9.3122a7.193,7.193,0,0,1,4.7869,1.4435,4.7436,4.7436,0,0,1,1.7052,3.8074,5.7139,5.7139,0,0,1-.6277,2.7234,5.2735,5.2735,0,0,1-2.534,2.0829Zm-10.3961-10.632H628.6a2.8862,2.8862,0,0,0,1.6588-.43,1.44,1.44,0,0,0,.6264-1.2669q0-1.711-2.1022-1.7117h-2.521Z"/><path class="cls-3" d="M654.4882,149.579h-4.4544l-4.8835-7.8776a30.2125,30.2125,0,0,1-1.896-3.6824,12.42,12.42,0,0,1,.4318,2.9258v8.6342h-4.4415V131.75h5.1723l4.1541,6.5308a25.261,25.261,0,0,1,1.88,3.422,25.9577,25.9577,0,0,1-.4176-4.6761V131.75h4.4544Z"/><path class="cls-3" d="M671.0117,145.3206v4.2584H657.597V131.75h13.4147v4.1141h-8.0465v2.5868h6.505v3.9569h-6.505v2.9129Z"/><path class="cls-3" d="M689.0484,149.579H682.98l-2.6036-6.8182h-1.7258v6.8182h-5.4726V131.75h9.3122a7.1989,7.1989,0,0,1,4.7882,1.4435,4.7464,4.7464,0,0,1,1.7039,3.8074,5.7286,5.7286,0,0,1-.6264,2.7234,5.2863,5.2863,0,0,1-2.5339,2.0829Zm-10.3975-10.632h2.3381a2.8836,2.8836,0,0,0,1.6588-.43,1.44,1.44,0,0,0,.6264-1.2669q0-1.711-2.1022-1.7117h-2.5211Z"/><path class="cls-3" d="M689.7933,144.42l5.0808-.9138q.64,2.1537,3.2918,2.155,2.063,0,2.0635-1.0968a1.0187,1.0187,0,0,0-.4769-.8958,5.1358,5.1358,0,0,0-1.7039-.5671q-4.69-.8989-6.0216-2.3483a4.882,4.882,0,0,1-1.3327-3.41,5.3376,5.3376,0,0,1,1.914-4.1941,8.1175,8.1175,0,0,1,5.5048-1.6729q5.448,0,7.1971,4.3757l-4.5317,1.3714a2.774,2.774,0,0,0-2.8613-1.789q-1.7884,0-1.789,1.11a.8793.8793,0,0,0,.4047.7707,4.9583,4.9583,0,0,0,1.5673.522,33.1553,33.1553,0,0,1,4.5472,1.1974,4.8944,4.8944,0,0,1,2.2452,1.7812,4.985,4.985,0,0,1,.9009,2.9735,5.2679,5.2679,0,0,1-2.1936,4.386,9.23,9.23,0,0,1-5.76,1.6795Q691.3207,149.8536,689.7933,144.42Z"/><path class="cls-3" d="M729.8132,149.579H725.36l-4.8836-7.8776a30.0433,30.0433,0,0,1-1.896-3.6824,12.4042,12.4042,0,0,1,.43,2.9258v8.6342h-4.44V131.75h5.1723l4.1541,6.5308a25.2519,25.2519,0,0,1,1.88,3.422,25.9577,25.9577,0,0,1-.4176-4.6761V131.75h4.4531Z"/><path class="cls-3" d="M740.6282,149.8536a8.0766,8.0766,0,0,1-6.1325-2.4953,9.2876,9.2876,0,0,1-2.37-6.6739,9.6988,9.6988,0,0,1,2.2659-6.6029,7.8947,7.8947,0,0,1,6.29-2.6061,8.01,8.01,0,0,1,6.0668,2.4566,9.1012,9.1012,0,0,1,2.3445,6.5565,9.64,9.64,0,0,1-2.3638,6.8053A7.9285,7.9285,0,0,1,740.6282,149.8536Zm-.0258-4.05a2.0675,2.0675,0,0,0,1.9913-1.2077,10.9889,10.9889,0,0,0,.6071-4.4209q0-4.6515-2.494-4.65-2.6912,0-2.6912,5.3025Q738.0156,145.8039,740.6024,145.8039Z"/><path class="cls-3" d="M758.7319,136.0213V149.579h-5.1852V136.0213H749.85V131.75h12.5782v4.2714Z"/><path class="cls-3" d="M786.54,149.579h-6.068l-2.6036-6.8182h-1.7258v6.8182H770.67V131.75h9.3122a7.1989,7.1989,0,0,1,4.7882,1.4435,4.7464,4.7464,0,0,1,1.7039,3.8074,5.7286,5.7286,0,0,1-.6264,2.7234,5.2861,5.2861,0,0,1-2.534,2.0829Zm-10.3974-10.632h2.338a2.8834,2.8834,0,0,0,1.6588-.43,1.44,1.44,0,0,0,.6264-1.2669q0-1.711-2.1021-1.7117h-2.5211Z"/><path class="cls-3" d="M794.5976,131.75V149.579H789.125V131.75Z"/><path class="cls-3" d="M807.5161,142.7737l5.0022.3a7.3052,7.3052,0,0,1-2.4231,5.0293,8.3157,8.3157,0,0,1-10.9517-.6535,9.3646,9.3646,0,0,1-2.2336-6.6352,10.3136,10.3136,0,0,1,2.115-6.7653,8.2743,8.2743,0,0,1,11.3448-.6148,8.0888,8.0888,0,0,1,2.1486,5.1993l-5.1079.2746a3.9361,3.9361,0,0,0-.6857-2.5868,2.0675,2.0675,0,0,0-1.6124-.7966q-2.5868,0-2.5868,5.1981a8.0076,8.0076,0,0,0,.6728,3.9582,2.1256,2.1256,0,0,0,1.8883,1.044Q807.2538,145.7253,807.5161,142.7737Z"/><path class="cls-3" d="M829.6424,131.75V149.579H824.17v-6.9355h-4.18v6.9355h-5.4726V131.75H819.99v6.5566h4.18V131.75Z"/><path class="cls-2" d="M854.2265,131.75l-5.5795,10.28v7.549H843.33V142.03l-5.9984-10.28H843.32l3.1256,5.8773,2.9953-5.8773Z"/><path class="cls-2" d="M868.6582,145.3206v4.2584H855.2435V131.75h13.4147v4.1141h-8.0465v2.5868h6.505v3.9569h-6.505v2.9129Z"/><path class="cls-2" d="M878.1521,136.0213V149.579h-5.1852V136.0213H869.27V131.75h12.5782v4.2714Z"/><rect class="cls-3" x="1338.438" y="24.4997" width="30.9677" height="593.0323"/><polygon class="cls-3" points="703.871 100.955 738.217 72.006 724.724 109.297 707.305 109.297 703.871 100.955"/><polygon class="cls-3" points="696.22 100.955 661.873 72.006 675.367 109.297 692.785 109.297 696.22 100.955"/><circle class="cls-9" cx="712.6071" cy="105.1725" r="4.124"/><circle class="cls-9" cx="687.2655" cy="105.1725" r="4.124"/><rect class="cls-10" x="696.2198" y="113.3051" width="2.0583" height="4.0625"/><rect class="cls-10" x="701.8125" y="113.3051" width="2.0583" height="4.0625"/><path class="cls-3" d="M699.9864,30.6479a54.7027,54.7027,0,0,0-51.8742,37.346H634.6171v34.6674h16.9385V83.72a48.4578,48.4578,0,0,1,96.8889,1.6079v17.3337h16.9384V67.9939H751.8606A54.7026,54.7026,0,0,0,699.9864,30.6479Z"/><rect class="cls-3" x="766.8769" y="72.7338" width="4.3692" height="25.1876"/><rect class="cls-3" x="628.7538" y="72.7338" width="4.3692" height="25.1876"/><path class="cls-3" d="M728.9779,17.349a25.0359,25.0359,0,0,1,2.9265,14.4466,28.4413,28.4413,0,0,0,15.1293-14.5865,34.2652,34.2652,0,0,1-.5111,29.0577c-.9963,1.9976-2.519,4.1088-4.7443,4.2857-2.0341.1617-3.76-1.3569-5.324-2.6676-5.9558-4.9915-13.1446-8.1731-20.5588-10.3209-3.0439-.8818-20.6771-3.1573-20.7408-5.2248,6.4278-1.09,12.4378-1.5575,18.5449-4.259C715.3257,27.3609,730.0438,19.2959,728.9779,17.349Z"/><path class="cls-11" d="M268.3579,481.6581l16.8829,12.2512a85.0828,85.0828,0,0,1,9.9115-8.3414c5.83-4.1939,25.1677-22.9481,25.1677-22.9481s-4.2756-6.0247-5.15-10.2031-.2915-6.0247-.2915-6.0247l6.9964-2.7208,4.6643-6.4134s9.7172.5831,12.8267,2.5265a15.1863,15.1863,0,0,1,4.0813,3.3039,102.8859,102.8859,0,0,1,10.3974-.68c4.7614,0,11.5635,12.0493,11.5635,12.0493S360.6466,467.09,353.2614,472.92s-19.4345,13.3126-19.4345,13.3126L298.19,546.532l-32.6668,15.5-32.0126-23.5-3.4874-31.3333,18.5-25.5406Z"/><path class="cls-12" d="M90.69,420.282s19.8673-39.0886,28.5456-41.0412,34.0623-1.5187,34.0623-1.5187l4.1222-.0411s.8678-4.298,6.5087-6.6846c0,0-2.1695-2.6035-2.82-10.6309,0,0-3.9053-4.5561-2.6035-8.2444s6.7257-15.4039,12.3666-17.3566a34.5277,34.5277,0,0,1,10.197-1.9526s16.2718-10.197,40.5709-4.3391c0,0,23.6483,11.9326,23.8653,29.5062v2.3865s5.8579,3.6883,5.4239,8.2444-8.4613,29.0723-8.4613,29.0723l1.3017,11.9326a14.0189,14.0189,0,0,1,7.1826,9.3292c1.7127,6.9426,3.1678,48.51-6.1948,70.98S233.51,515.3905,233.51,515.3905a123.515,123.515,0,0,1,2.676,34.4543c-1.1669,19.4742-5.83,24.7173-5.83,24.7173l-17.2548,31.8153H86.7159V587.2952S71.3612,576.8091,68.74,567.821s1.498-34.4543,1.498-34.4543L83.72,509.881Z"/><path class="cls-13" d="M150.19,430.282l.75,10.25a48.9557,48.9557,0,0,0,2.5,17.94c3.25,9.94.25,20.81.25,20.81s24.75-6,28.5-6.75a7.6979,7.6979,0,0,1,6,1s-3,.5,5-2,36.0133-18.0969,36.0133-18.0969,22.6117-10.6346,28.6-11.0476,34.6917,4.5429,34.6917,4.5429l7.2275,12.9062-6.4015,3.304-5.3689-1.5488s.413,2.2715-1.1358,8.3632-20.7531,17.6556-20.7531,17.6556l-11.04-2.2453a74.1026,74.1026,0,0,0-21.0042-.6666s-40.329,35.6666-64.329,50.6666-58.6667,22-58.6667,22S78.44,527.282,81.94,513.032s1-43.625,5-55.875,3.375-32.875,3.75-36.875c0,0,6.7854-7.7142,28.0325-6.35A42.7724,42.7724,0,0,1,150.19,430.282Z"/><path class="cls-14" d="M188.19,473.532a25.152,25.152,0,0,1,12.2166,14.6812,115.2746,115.2746,0,0,1,3.7456,21.6678L233.51,485.5679l-4.3073-32.1328S201.9916,468.3755,188.19,473.532Z"/><path class="cls-14" d="M152.2742,479.6177s-13.8554-1.3147-33.4756,3.6409-15.4736-.4172-5.259-3.7989a63.2645,63.2645,0,0,1,28.4189-2.2692A89.7513,89.7513,0,0,1,152.2742,479.6177Z"/><path class="cls-14" d="M152.2742,476.078s-17.8-6.27-28.7222-6.1692-11.4282.6068-11.4282.6068,24.6768,3.8431,30.6438,4.8545A41.7025,41.7025,0,0,0,152.2742,476.078Z"/><path class="cls-14" d="M150.1063,466.8653s-18.6667-18.5-31.1667-22.4166-16.5-9.5834-16.5-9.5834,8.75-6.8333,22.75-.9166S150.1063,466.8653,150.1063,466.8653Z"/><path class="cls-15" d="M152.2742,402.6985l102.1,15.6453,1.0549-1.7579,7.559.5274V413.07l12.6568.7.8789-11.072-.6777-.8663h-1.992l-.3464,1.2991-17.061-1.2991a18.4167,18.4167,0,0,1,2.4249-14.6361l16.2816,2.3383-.1731,1.8187,1.5437.3464.5347-2.2517H278.69l.447-5.8024,12.1245,1.9053v5.1962l1.8186.3464.6929-4.85,5.95.866-.6668,5.3695,3.0312.6928c-.0866,1.1259,29.983,4.6094,29.983,4.6094l-.884,12.365-30.5713-3.1177-.8921,10.6523,29.4714,4.4168.52-3.0312,11.2585,1.2991-.52,3.3776h1.9054l-.3466,4.2436,8.2274.52.6063-5.37L415.71,433.67l-3.4155,25.4269-64.39-9.1081L349.17,438.35l-8.3492-1.0924-1.518,11.592-20.823-3.8582.8,18.6335h8.2435s-.3332,25.4069,1.8334,41.9069L306.19,509.881s-8.9348-25.6823-6.4674-44.0157l7.634-1.1666,1.3334-12-4.8334-.6667a9.87,9.87,0,0,1-2,9.6667c-4,4.6666-6,5.6666-6,5.6666l-2.1666-3a6.3246,6.3246,0,0,0,4.0258-6.1666c-.0258-4.8334,0-6,0-6l-2.0258-4-39.1668-7.8334,1.3334-10.8333-18-2.3265a31.9757,31.9757,0,0,1-15.1666,4.4932c-8.5.1666-19.3334-2.1667-19.3334-2.1667l-1.3333,7.7258s-6.5-2.9408-18,0S169.69,442.532,169.69,442.532l1-6.1667s-9.6667,3.8334-13.6667,7.8334l-4,4S140.1922,422.1983,152.2742,402.6985Z"/><path class="cls-14" d="M213.8132,392.032s20.5349-3.4707,26.2127-8.3866,10.1272-18.449,10.1272-18.449,1.403,1.5346.4,5.4734-8.011,27.7057-8.011,27.7057a20.0991,20.0991,0,0,1-12.642,7.8915c-8.6115,1.6087-18.5478-1.5141-18.5478-1.5141S211.7314,393.5057,213.8132,392.032Z"/><path class="cls-11" d="M239.8367,404.6582s.5679,3.7853-9.4631,4.3531-2.8389,3.5013,2.65,1.9872S240.2152,408.9166,239.8367,404.6582Z"/><path class="cls-11" d="M212.5506,394.6414s.3077-5.8039,3.3568-6.7622,15.768-4.3558,21.2564-9.67,7.4048-8.8859,8.276-12.2835a13.5168,13.5168,0,0,0,.5321-5.24s3.319,1.8646,4.1812,4.5107c0,0-2.7095,15.5392-10.7243,19.6337s-23.0859,7.2019-23.0859,7.2019A4.6224,4.6224,0,0,0,212.5506,394.6414Z"/><path class="cls-11" d="M164.8264,374.25s27.6636,14.4454,36.5554,17.7818,11.1688,4.2009,11.1688,4.2009h1.181l-1.729,8.4253s-19.8831-5.5849-29.1455-10.5248a167.3474,167.3474,0,0,1-19.6362-12.9673Z"/><polygon class="cls-15" points="415.178 437.631 439.844 440.898 434.953 459.294 429.423 459.294 430.061 456.529 426.127 456.423 425.383 458.231 416.77 458.018 416.876 454.403 412.304 454.615 415.178 437.631"/><path class="cls-15" d="M421.3418,440.0478l10.9168-13.1586a2.8565,2.8565,0,0,1,2.5362-1.0126h0a2.8565,2.8565,0,0,1,2.4876,3.2586L435.2716,442.6l2.4455,1.4886,2.4457-18.5686a2.8567,2.8567,0,0,0-2.8322-3.23h-2.1225a2.8569,2.8569,0,0,0-2.1744,1.004L418.5772,440.26Z"/><polygon class="cls-15" points="438.519 445.88 491.111 455.797 491.111 457.31 493.586 457.997 493.586 455.934 506.926 457.447 505.55 465.286 493.586 463.223 493.449 460.748 491.249 460.748 491.249 462.26 436.229 454.492 438.519 445.88"/><path class="cls-15" d="M401.0672,457.5084s-4.4308,4.6144-1.5429,5.44a15.8987,15.8987,0,0,0,6.6008,0l-1.2639-4.9028Z"/><path class="cls-15" d="M415.71,463.3146s6.3631-6.2578,9.1179-6.555,8.1134,3.4379,5.7756,9.4887-2.4753,5.5007-2.4753,5.5007Z"/><path class="cls-15" d="M410.6561,467.9942l5.0536,2.2536s-17.3535,87.7842-55.3535,113.1175S259.8423,626.032,259.8423,626.032s-52.4861-24.6667-63.486-43.3333-23.939-49.0817-23.939-49.0817l4.6731-3.1548s34.6229,59.2365,70.111,68.57S352.69,563.6987,352.69,563.6987s25.6666-17.3334,41-42S410.6561,467.9942,410.6561,467.9942Z"/><polygon class="cls-15" points="213.102 606.377 225.353 642.032 79.46 642.032 86.716 603.676 213.102 606.377"/><path class="cls-11" d="M1130.4808,481.6584,1113.5979,493.91a85.0828,85.0828,0,0,0-9.9115-8.3414c-5.83-4.1939-25.1677-22.9481-25.1677-22.9481s4.2756-6.0247,5.15-10.2031.2915-6.0247.2915-6.0247l-6.9964-2.7208-4.6643-6.4134s-9.7172.5831-12.8267,2.5265a15.1863,15.1863,0,0,0-4.0813,3.3039,102.8859,102.8859,0,0,0-10.3974-.68c-4.7614,0-11.5635,12.0493-11.5635,12.0493s4.7613,12.6324,12.1465,18.4628,19.4345,13.3126,19.4345,13.3126l35.6373,60.2993,32.6668,15.5,32.0126-23.5,3.4874-31.3333-18.5-25.5406Z"/><path class="cls-12" d="M1308.1492,420.2823s-19.8673-39.0886-28.5456-41.0412-34.0624-1.5187-34.0624-1.5187l-4.1222-.0411s-.8678-4.298-6.5087-6.6846c0,0,2.1695-2.6035,2.82-10.6309,0,0,3.9053-4.5561,2.6035-8.2444s-6.7257-15.4039-12.3666-17.3566a34.5277,34.5277,0,0,0-10.197-1.9526s-16.2718-10.197-40.5709-4.3391c0,0-23.6483,11.9326-23.8653,29.5062v2.3865s-5.8579,3.6883-5.4239,8.2444,8.4613,29.0723,8.4613,29.0723l-1.3017,11.9326a14.0189,14.0189,0,0,0-7.1826,9.3292c-1.7127,6.9426-3.1678,48.51,6.1948,70.98s11.2462,25.4663,11.2462,25.4663a123.515,123.515,0,0,0-2.676,34.4543c1.1669,19.4742,5.83,24.7173,5.83,24.7173l17.2548,31.8153h126.3861V587.2955s15.3547-10.4861,17.9762-19.4742-1.498-34.4543-1.498-34.4543l-13.4822-23.4857Z"/><path class="cls-13" d="M1248.6491,430.2823l-.75,10.25a48.9557,48.9557,0,0,1-2.5,17.94c-3.25,9.94-.25,20.81-.25,20.81s-24.75-6-28.5-6.75a7.6979,7.6979,0,0,0-6,1s3,.5-5-2-36.0133-18.0969-36.0133-18.0969-22.6117-10.6346-28.6-11.0476-34.6917,4.5429-34.6917,4.5429l-7.2275,12.9062,6.4015,3.304,5.3689-1.5488s-.413,2.2715,1.1358,8.3632,20.7531,17.6556,20.7531,17.6556l11.04-2.2453a74.1026,74.1026,0,0,1,21.0042-.6666s40.329,35.6666,64.329,50.6666,58.6668,22,58.6668,22,32.5833-30.0833,29.0833-44.3333-1-43.625-5-55.875-3.375-32.875-3.75-36.875c0,0-6.7854-7.7142-28.0326-6.35A42.7724,42.7724,0,0,0,1248.6491,430.2823Z"/><path class="cls-14" d="M1210.6491,473.5323a25.152,25.152,0,0,0-12.2166,14.6812,115.2746,115.2746,0,0,0-3.7456,21.6678l-29.3584-24.3131,4.3073-32.1328S1196.8471,468.3758,1210.6491,473.5323Z"/><path class="cls-14" d="M1246.5645,479.618s13.8554-1.3147,33.4757,3.6409,15.4736-.4172,5.259-3.7989a63.265,63.265,0,0,0-28.419-2.2692A89.7513,89.7513,0,0,0,1246.5645,479.618Z"/><path class="cls-14" d="M1246.5645,476.0783s17.8-6.27,28.7222-6.1692,11.4283.6068,11.4283.6068-24.6769,3.8431-30.6439,4.8545A41.7025,41.7025,0,0,1,1246.5645,476.0783Z"/><path class="cls-14" d="M1248.7324,466.8656s18.6667-18.5,31.1668-22.4166,16.5-9.5834,16.5-9.5834-8.75-6.8333-22.75-.9166S1248.7324,466.8656,1248.7324,466.8656Z"/><path class="cls-15" d="M1246.5645,402.6988l-102.1,15.6453-1.0549-1.7579-7.559.5274V413.07l-12.6568.7-.8789-11.072.6777-.8663h1.992l.3464,1.2991,17.061-1.2991a18.4167,18.4167,0,0,0-2.4249-14.6361l-16.2816,2.3383.1731,1.8187-1.5437.3464-.5347-2.2517h-1.6316l-.447-5.8024-12.1245,1.9053v5.1962l-1.8186.3464-.6929-4.85-5.95.866.6668,5.37-3.0312.6928c.0866,1.1259-29.983,4.6094-29.983,4.6094l.884,12.365,30.5713-3.1177.8921,10.6523-29.4714,4.4168-.52-3.0312-11.2585,1.2991.52,3.3776h-1.9054l.3466,4.2436-8.2274.52-.6063-5.37L983.129,433.67l3.4155,25.4269,64.39-9.1081-1.265-11.6382,8.3492-1.0924,1.518,11.592,20.823-3.8582-.8,18.6335h-8.2435s.3332,25.4069-1.8334,41.9069l23.1666,4.349s8.9348-25.6823,6.4674-44.0157l-7.634-1.1666-1.3334-12,4.8334-.6667a9.87,9.87,0,0,0,2,9.6667c4,4.6666,6,5.6666,6,5.6666l2.1666-3a6.3246,6.3246,0,0,1-4.0258-6.1666c.0258-4.8334,0-6,0-6l2.0258-4,39.1668-7.8334-1.3334-10.8333,18-2.3265a31.9757,31.9757,0,0,0,15.1666,4.4932c8.5.1666,19.3334-2.1667,19.3334-2.1667l1.3333,7.7258s6.5-2.9408,18,0,16.3333,5.2742,16.3333,5.2742l-1-6.1667s9.6667,3.8334,13.6667,7.8334l4,4S1258.6465,422.1986,1246.5645,402.6988Z"/><path class="cls-14" d="M1185.0255,392.0323s-20.5349-3.4707-26.2127-8.3866-10.1272-18.449-10.1272-18.449-1.403,1.5346-.4,5.4734,8.011,27.7057,8.011,27.7057a20.0991,20.0991,0,0,0,12.642,7.8915c8.6115,1.6087,18.5478-1.5141,18.5478-1.5141S1187.1073,393.506,1185.0255,392.0323Z"/><path class="cls-11" d="M1159.002,404.6585s-.5679,3.7853,9.4631,4.3531,2.8389,3.5013-2.65,1.9872S1158.6235,408.9169,1159.002,404.6585Z"/><path class="cls-11" d="M1186.2881,394.6417s-.3077-5.8039-3.3568-6.7622-15.768-4.3558-21.2564-9.67-7.4048-8.8859-8.276-12.2835a13.5168,13.5168,0,0,1-.5321-5.24s-3.319,1.8646-4.1812,4.5107c0,0,2.7095,15.5392,10.7243,19.6337s23.0859,7.2019,23.0859,7.2019A4.6224,4.6224,0,0,1,1186.2881,394.6417Z"/><path class="cls-11" d="M1234.0123,374.2505s-27.6636,14.4454-36.5554,17.7818-11.1688,4.2009-11.1688,4.2009h-1.181l1.729,8.4253s19.8831-5.5849,29.1455-10.5248a167.3474,167.3474,0,0,0,19.6362-12.9673Z"/><polygon class="cls-15" points="983.661 437.631 958.995 440.899 963.886 459.294 969.416 459.294 968.778 456.53 972.712 456.423 973.456 458.231 982.069 458.018 981.963 454.403 986.535 454.616 983.661 437.631"/><path class="cls-15" d="M977.4969,440.0481,966.58,426.89a2.8565,2.8565,0,0,0-2.5362-1.0126h0a2.8565,2.8565,0,0,0-2.4876,3.2586L963.5671,442.6l-2.4455,1.4886L958.6759,425.52a2.8567,2.8567,0,0,1,2.8322-3.23h2.1225a2.8569,2.8569,0,0,1,2.1744,1.004l14.4565,16.9663Z"/><polygon class="cls-15" points="960.319 445.88 907.728 455.797 907.728 457.31 905.252 457.998 905.252 455.935 891.913 457.447 893.288 465.286 905.252 463.223 905.39 460.748 907.59 460.748 907.59 462.261 962.609 454.492 960.319 445.88"/><path class="cls-15" d="M997.7715,457.5087s4.4308,4.6144,1.5429,5.44a15.8987,15.8987,0,0,1-6.6008,0l1.2639-4.9028Z"/><path class="cls-15" d="M983.129,463.3149s-6.3631-6.2578-9.1179-6.555-8.1134,3.4379-5.7756,9.4887,2.4753,5.5007,2.4753,5.5007Z"/><path class="cls-15" d="M988.1826,467.9945l-5.0536,2.2536s17.3535,87.7842,55.3535,113.1175,100.5139,42.6667,100.5139,42.6667,52.4861-24.6667,63.486-43.3333,23.939-49.0817,23.939-49.0817l-4.6731-3.1548s-34.6229,59.2365-70.111,68.57-105.4882-35.3333-105.4882-35.3333-25.6666-17.3334-41-42S988.1826,467.9945,988.1826,467.9945Z"/><polygon class="cls-15" points="1185.737 606.378 1173.486 642.032 1319.379 642.032 1312.123 603.676 1185.737 606.378"/></svg>