<svg id="Capa_1" data-name="Capa 1" xmlns="http://www.w3.org/2000/svg" viewBox="0 0 1280 581"><defs><style>.cls-1{fill:#f0efeb;}.cls-2{fill:#ffe40d;}.cls-3{font-size:41.3274px;font-family:FranklinGothic-Heavy, Franklin Gothic Heavy;font-weight:800;}</style></defs><title>Mesa de trabajo 1login</title><rect class="cls-1" x="0.5" y="0.5" width="1279" height="580"/><path d="M1279,1V580H1V1H1279m1-1H0V581H1280V0Z"/><rect x="20.5" y="9.3765" width="13" height="562.2476"/><path d="M33,9.8764V571.1236H21V9.8764H33m1-1H20V572.1236H34V8.8764Z"/><rect x="1246.5" y="9.3765" width="13" height="562.2476"/><path d="M1259,9.8764V571.1236h-12V9.8764h12m1-1h-14V572.1236h14V8.8764Z"/><path class="cls-2" d="M616.8175,454v89.7357H589.2721V508.8275H568.235v34.9082H540.69V454h27.545v33.0014h21.0371V454Z"/><path class="cls-2" d="M752.8061,454l-23.8008,89.7353H705.8642L693.311,494.233l-11.855,49.5025H657.33L633.4872,454h25.919l12.5526,51.6479L684.2043,454h21.6251l13.3216,51.749L731.7232,454Z"/><path d="M768.814,493.088c-88.0285,0-146.8095,12.0883-228.124,32.2062V501.498c.0034.38,134.0839-19.9138,228.124-15.9184Z"/><path d="M783.9665,480.4047H763.96a42.7,42.7,0,0,0-11.1535-10.3011,39.6049,39.6049,0,0,1,5.903,11.58,9.3311,9.3311,0,0,0-4.6416,8.0649h0a9.3408,9.3408,0,0,0,4.9053,8.2232,28.8467,28.8467,0,0,1-6.1667,11.4213c6.0719-3.4317,9.9369-6.9081,12.2092-10.3011h18.9512a9.3435,9.3435,0,0,0,9.3435-9.3434h0A9.3435,9.3435,0,0,0,783.9665,480.4047Z"/><text class="cls-3" transform="translate(476.8711 72.0391)">INICIO DE SESIÓN</text></svg>