<svg id="Capa_1" data-name="Capa 1" xmlns="http://www.w3.org/2000/svg" viewBox="0 0 523.3389 185.9002"><defs><style>.cls-1{fill:#fff;}.cls-2{fill:#ffff01;}</style></defs><title>Mesa de trabajo 2HENRY</title><path class="cls-1" d="M157.7091,0V185.9H100.6449V113.5828H57.0635V185.9H0V0H57.0635V68.3669h43.5814V0Z"/><path class="cls-2" d="M439.4293,0,390.1224,185.9h-47.94L316.1764,83.3482,291.6172,185.9H241.6361L192.2427,0h53.6952l26.0044,106.9961L297.3106,0h44.8l27.5976,107.2056L395.7529,0Z"/><path class="cls-2" d="M472.5918,80.9761c-182.3636,0-304.137,25.0427-472.5918,66.72V98.3987c.007.7875,277.7741-41.2542,472.5918-32.9773Z"/><path class="cls-1" d="M503.9825,54.701H462.5353c-9.1489-12.875-23.106-21.34-23.106-21.34A82.0476,82.0476,0,0,1,451.6581,57.35a19.33,19.33,0,0,0-9.6157,16.7076h0a19.3506,19.3506,0,0,0,10.162,17.0355,59.7625,59.7625,0,0,1-12.7751,23.661c12.5788-7.1094,20.5857-14.3111,25.293-21.34h39.26a19.3564,19.3564,0,0,0,19.3564-19.3562h0A19.3564,19.3564,0,0,0,503.9825,54.701Z"/></svg>