<svg id="Capa_1" data-name="Capa 1" xmlns="http://www.w3.org/2000/svg" viewBox="0 0 959.5169 951.1286"><defs><style>.cls-1{fill:#40586f;}.cls-1,.cls-2{fill-rule:evenodd;}.cls-2{fill:#219ab5;}</style></defs><title>SCRUM</title><path class="cls-1" d="M595.5761,985.3842l32.07.1757c-7.6441,4.3931-21.7022,2.8116-32.07,2.8116v-2.9873Zm-8.7863-2.8995c2.8117-2.8116,9.3134,3.69,3.4267,1.5815C590.1286,984.0662,582.836,986.4385,586.79,982.4847Zm-79.2523-20.56c.2636-.2636.8787.4393.8787.8786,0,.1757.3514.3515.3514.3515C508.68,963.067,503.5837,965.8786,507.5375,961.9248Zm-8.7863-2.8995c.2636-.2636.8787.4394.8787.8786,0,.1757.3514.3515.3514.3515C499.8935,960.1675,494.7974,962.9791,498.7512,959.0253Zm-8.7863-2.8995c2.8117-2.8116,9.3135,3.69,3.4267,1.5816C493.3038,957.7074,486.0111,960.08,489.9649,956.1258Zm91.0259-2.8995c.2636-.2635.8787.4394.8787.8786,0,.1757.3514.3515.3514.3515C582.1331,954.3685,577.037,957.18,580.9908,953.2263Zm-99.8121,0,5.8868,1.4059Zm84.8755-.7029-8.5227.8786C559.1129,952.26,556.3892,947.1638,566.0542,952.5234Zm-20.2963-5.096c2.8117-2.8117,9.2256,3.69,3.4266,1.5815C549.0967,949.0089,541.8041,951.3812,545.7579,947.4274Zm170.2782-2.8995c2.8117-2.8116,9.2256,3.69,3.4266,1.5815C719.3749,946.1094,712.0823,948.4817,716.0361,944.5279Zm-184.9513,0c2.8117-2.8116,9.2256,3.69,3.4267,1.5815C534.4236,946.1094,527.0431,948.4817,531.0848,944.5279Zm196.6371-2.8995c.2635-.2636.8786.4393.8786.8786,0,.1757.3514.3514.3514.3514C728.8641,942.7706,723.7681,945.5822,727.7219,941.6284Zm11.7735-2.9c.2636-.2636.8787.4393.8787.8786,0,.1757.3514.3515.3514.3515C740.6377,939.8711,735.5416,942.6827,739.4954,938.7289Zm-228.9705,0c2.8117-2.8116,9.3135,3.69,3.4267,1.5815C513.8638,940.31,506.5711,942.6827,510.5249,938.7289Zm211.31,0c5.2718-3.3388,1.5814-5.6232,11.51-.7907Zm14.673-5.8868c.2636-.2636.8787.4393.8787.8786,0,.1757.3514.3515.3514.3515C737.65,933.9843,732.5543,936.7959,736.5081,932.8421Zm-240.6562,0c.2635-.2636.8786.4393.8786.8786,0,.1757.3514.3515.3514.3515C496.9941,933.9843,491.8981,936.7959,495.8519,932.8421Zm211.31,0c5.2718-3.3388,1.5815-5.6232,11.51-.7907Zm-220.0964-2.8995,5.8868,1.4058Zm234.8573-2.8995c.2636-.2636.8787.4394.8787.8786,0,.1757.3514.3515.3514.3515C723.0651,928.1853,717.9691,930.9969,721.9229,927.0431Zm-146.9945.7907-8.5227,2.5481C570.5353,926.78,560.87,927.2188,574.9284,927.8338Zm-87.775,2.1966-5.8868-2.8995Zm67.4786-5.8868c.2636-.2636.8787.4394.8787.8786,0,.1757.3514.3515.3514.3515C555.7742,925.2858,550.6782,928.0974,554.632,924.1436Zm-73.3655,2.8995-5.8868-2.8995Zm64.5792-5.8868c.2636-.2636.8787.4394.8787.8786,0,.1757.3514.3515.3514.3515C546.988,922.2985,541.8919,925.11,545.8457,921.1563Zm-11.7736-2.8995c.2636-.2635.8787.4394.8787.8786,0,.1757.3514.3515.3514.3515C535.2144,919.399,530.1183,922.2106,534.0721,918.2568Zm225.9832-11.7736c.2636-.2635.8787.4394.8787.8787,0,.1757.3514.3514.3514.3514C761.1976,907.6254,756.1015,910.437,760.0553,906.4832Zm5.8868-2.8994c.2636-.2636.8787.4393.8787.8786,0,.1757.3514.3514.3514.3514C767.0844,904.7259,761.9883,907.5376,765.9421,903.5838Zm5.8868-2.8995c.2636-.2636.8787.4393.8787.8786,0,.1757.3514.3514.3514.3514C772.9712,901.8265,767.8751,904.6381,771.8289,900.6843Zm11.7736-2.8995-5.2718,3.0752Zm5.8868-2.8995-5.8868,2.8995Zm0,0,.7907-2.7237,2.1966,1.6694-2.8995.9665Zm8.7863-5.8868-.7908,2.7237-2.1965-1.6694,2.8994-.9665Zm5.8868-2.8995-5.8868,2.8995Zm5.8867-2.9-5.8867,2.9Zm2.9-2.8995-2.9,2.8995Zm0,0c4.5689-6.5018,10.28-9.7528,17.5726-11.7736C824.6344,877.4884,823.2286,877.7521,812.9486,880.3ZM481.2665,953.7534c-35.0573-3.0752-114.1338-63.8763-132.0578-91.0259,8.5227,2.2844,48.7639,40.4168,62.2069,49.3789,11.5979,7.7319,22.1414,14.2338,34.0908,21.7021,11.2464,7.0291,26.71,11.9494,35.848,19.9449Zm349.2547-85.1391c5.5354-8.5228,3.0753-6.5019,11.7736-8.7863C836.7594,868.3507,839.22,866.33,830.5212,868.6143Zm-481.4-5.8868-2.8995-2.8995Zm-2.8995-2.8995-2.8995-2.8995Zm-2.8995-2.8995-2.8995-2.8995Zm498.973,2.8995,11.7736-11.7736C852.1354,857.4557,850.9053,857.5436,842.2948,859.828Zm-143.8314-8.7863-.7029,2.7237-2.1966-1.6694,2.8995-.9665Zm-358.1288,2.8995-2.7238-.7908,1.6694-2.1965.9665,2.8995Zm358.1288-2.8995,5.2718-3.0752Zm155.605-2.8995.7907-2.7237,2.1966,1.6694-2.8995.9665Zm55.7929-64.5792c.2636-.2635.8787.4394.8787.8787,0,.1756.3514.3514.3514.3514C911.0036,784.7052,905.9075,787.5168,909.8613,783.563Zm8.7863-8.7862-.7029,2.7237-2.1966-1.6694,2.8995-.9665Zm2.8995-5.8868-2.8995,5.8868Zm0,0,5.8868-8.7863Zm8.7863-14.6731-2.8995,5.8868Zm-651.5908,0c.2636-.2636.8786.4393.8786.8786,0,.1757.3515.3515.3515.3515C279.8848,755.3591,274.7888,758.1707,278.7426,754.2169ZM933.3207,748.33l-2.8995,5.8868Zm2.8995-5.8868-2.8995,5.8868Zm0,0,1.4058-5.8868ZM942.107,727.77l-1.4059,5.8868Zm0,0,1.4058-5.8868Zm2.8995-11.7736c.2635-.2635.8786.4394.8786.8787,0,.1756.3514.3514.3514.3514C946.1487,717.1388,941.0527,719.95,945.0065,715.9966Zm2.8994-5.8868c0-6.7654,3.6025-.5271,1.8452,0C949.7511,710.11,947.9059,717.6661,947.9059,710.11Zm2.8995-11.7735c.2636-.2636.8787.4393.8787.8786,0,.1757.3514.3514.3514.3514C951.9477,699.4784,946.8516,702.29,950.8054,698.3363Zm5.8868-17.6605c0-6.7654,3.6024-.5271,1.8452,0C958.5374,680.6758,956.6922,688.232,956.6922,680.6758Zm2.8995-14.6731c.2636-.2635.8787.4394.8787.8786,0,.1757.3514.3515.3514.3515C960.734,667.1449,955.6379,669.9565,959.5917,666.0027Zm2.548-14.5852c3.2509,3.69,2.9873-4.13,2.6359,8.5227Zm4.13-3.251c-.7029-6.3261,2.9873-67.3029,4.3932-70.0267C972.6832,596.6789,974.7041,633.9327,966.2692,648.1665Zm-241.447,194.089-8.7862,2.8995c-1.8452,8.9619-8.6985.0878-8.7863,0-15.0246,0-21.4386,4.2174-35.3209,5.7989-12.213,1.4059-29.0826,1.933-40.417,3.69-19.5933,2.9873-62.5583,3.5145-76.9678-6.5019-27.8525-2.46-72.1354-31.6306-87.5114-31.8063,2.6359,15.7274,16.5183,29.9612,25.6559,42.7892-46.4793,5.096-86.457-48.5881-119.3177-72.399l4.6567,13.7945c-13.7944-2.1087-12.8279-12.5644-23.02-19.857l-4.7446,3.0752-11.7736-12.0373c3.1631,30.4006,67.6544,87.775,92.3438,106.4019,33.7393,25.48,106.3141,55.3536,147.2581,55.3536,6.8533-8.9619,7.82-.1757,17.9239,2.6359,1.1423.3515,5.7111.7908,7.732,1.1422,39.5383,7.1169,74.1563-3.7781,103.5024-3.7781-16.0789,11.1586-42.9649,10.1921-64.3157,12.4765,22.2293,10.3679,55.6172-6.15,78.9888-6.59-36.0238,25.0409-146.9067,14.1459-201.47-4.0417-12.1251-4.0416-48.6759-20.7356-56.5836-21.6142l11.51,10.9828c-47.5338-11.51-112.113-75.562-140.0534-112.4644-16.6939-22.0536-35.6723-52.8056-46.5673-79.6916-10.895-26.9739-27.5889-71.4324-27.5889-100.8665l-8.7863-.7908c3.866,16.3425,4.5688,36.1117,11.1585,62.3826,4.5689,18.1876,10.1922,41.12,17.9241,57.3744-10.1922-2.548-18.1876-28.116-22.3172-38.3082-3.1631-7.9076-5.0961-14.4095-7.9077-21.5263-3.9538-10.1921-5.4475-15.64-13.7944-18.9784-8.7863,15.9031-1.318,38.5718,3.5145,52.8056C279.4451,837.7745,367.9229,940.75,480.1238,978.7064c48.94,16.5182,68.8844,19.4177,121.5143,19.4177,73.014,0,164.3913-20.0327,224.841-56.9351,86.6327-52.9813,143.5678-162.5463,159.9981-262.8856a408.0805,408.0805,0,0,0,0-129.9491C962.4027,401.4476,861.2727,294.9579,721.6586,249.4449c-31.8063-10.3678-86.2812-22.405-119.23-20.472-7.9955-10.6314-14.2337-27.0617-24.6894-41.0319-21.4385-28.5554-75.7377-82.6789-108.0713-85.6663,5.4475,7.6441,26.7982,17.8362,35.9359,25.7438C528.36,147.7,588.1072,205.9528,592.4125,228.0943c-20.9992,1.6694-53.3328-2.3723-69.6752,5.6232,23.4594,2.548,45.5129-4.5689,72.3991-1.4058,9.1376,8.0834,5.1838,8.2591,11.7735,13.7066l-2.5479-13.7066c9.2256,1.23,17.3968,1.4937,26.1831,2.8116,9.05,1.4058,16.2546,4.7446,26.5346,5.7989-1.6694,9.9285-5.5354,6.0626,27.0617,18.2755-15.9031,2.46-51.9269-6.5018-70.5538-7.2047-8.7863-.3515-58.3409,1.1422-60.8889,17.0454,16.9575,12.2129,103.6782,4.0416,136.9781,20.56-13.443,1.4936-24.4258-1.5816-37.9568-2.1088-13.6187-.5271-21.8779-3.4266-38.22-3.0752-13.2672.2636-60.0981,5.2718-67.1271,14.0581,26.886,2.9873,39.5382-1.6694,85.1391,3.4266,28.4676,3.1631,44.8979.4394,73.1018,14.9367,13.0916,6.7655,16.87,3.9539,26.5346,8.6985,7.2926,3.6023,40.7683,23.4593,45.3372,28.0282,51.6634,51.8391,77.5829,70.29,105.9626,143.5678,4.3931,11.4222,10.8071,17.0454,13.0036,25.2167l3.6024,62.2068c-3.163,20.4721-.3514,43.4043-5.2718,65.37-6.4139,28.5554-23.02,74.8591-43.4042,97.5277.5271,8.8742-.2636-2.46,3.4266,9.3134-16.6939,6.6776-40.329,35.4966-57.3744,48.3246-13.0916,9.8407-15.64,16.6061-30.4884,22.3172-11.1586,4.2174-29.9613,14.1459-40.7684,15.0245Z" transform="translate(-32.1661 -46.9956)"/><path class="cls-2" d="M287.4411,621.1049c2.8116-2.8116,9.2256,3.69,3.4266,1.5815C290.78,622.6864,283.4873,625.0587,287.4411,621.1049Zm-17.66-2.8995,8.6105.4393C268.7263,623.9165,273.2074,620.402,269.7807,618.2054Zm0,0-8.6106-.4393C270.835,612.4943,266.3539,616.0088,269.7807,618.2054Zm-14.6731-5.8868c.2636-.2636.8786.4394.8786.8786,0,.1757.3515.3515.3515.3515C256.25,613.4608,251.1538,616.2724,255.1076,612.3186Zm-67.4787-35.233,2.7238.7029-1.6695,2.1966-.9665-2.8995Zm0,0-2.7237-.7908,1.6694-2.1965.9665,2.8995Zm-11.7736-8.7863,2.7238.7029-1.6694,2.1966-.9665-2.8995Zm0,0L172.9558,565.4ZM172.9558,565.4l-2.7237-.7907,1.6694-2.1966.9665,2.8995Zm-58.6923-70.466,2.7237.703-1.6694,2.1965-.9665-2.8995Zm0,0-2.7237-.7907,1.6694-2.1966.9665,2.8995Zm-5.8868-8.7862,2.7237.7029-1.6694,2.1965-.9665-2.8994Zm0,0-3.0752-5.2718ZM102.49,474.3739c.2636-.2635.8786.4393.8786.8786,0,.1758.3515.3515.3515.3515C103.6321,475.5162,98.5361,478.3278,102.49,474.3739Zm-2.9-5.8868c.2636-.2635.8786.4393.8786.8787,0,.1757.3515.3514.3515.3514C100.7326,469.6294,95.6366,472.441,99.59,468.4871Zm-2.9-5.8868c0-6.7654,3.6024-.5271,1.8451,0C98.536,462.6,96.6909,470.2444,96.6909,462.6Zm-2.9-8.7862c.2636-.2636.8786.4393.8786.8786,0,.1757.3515.3514.3515.3514C94.9336,454.9563,89.8376,457.7679,93.7914,453.8141Zm498.973-5.8868-.7907,2.7237-2.1966-1.6694,2.8995-.9664Zm-23.4593-2.8995-1.4059,5.8868Zm-478.4131,0c.2636-.2636.8786.4393.8786.8786,0,.1757.3515.3515.3515.3515C92.0342,446.17,86.9382,448.9816,90.892,445.0278Zm481.4005-5.8868-2.8995,5.8868ZM140.7982,389.2349l-.4394,8.6106C135.0871,388.1806,138.6016,392.6615,140.7982,389.2349Zm-74.1563-52.63.7029,46.4794C62.3367,373.7711,62.161,345.6549,66.6419,336.6051Zm68.2694,40.8562c.2636-.2636.8786.4393.8786.8786,0,.1758.3515.3515.3515.3515C136.0535,378.6035,130.9575,381.4151,134.9113,377.4613ZM43.8854,292.3222c0-6.7654,3.6024-.5271,1.8451,0C45.7305,292.3222,43.8854,299.8785,43.8854,292.3222Zm2.9-11.7736c.2636-.2636.8786.4393.8786.8787,0,.1757.3515.3514.3515.3514-.0879-.0878-5.1839,2.7238-1.23-1.23ZM161.27,268.775l-.7907,2.7238-2.1966-1.6694,2.8995-.9665Zm-49.906-67.5665-.7908,2.7237-2.1965-1.6694,2.8994-.9665Zm0,0,.7029-2.7238,2.1965,1.6694-2.8994.9665ZM87.9047,198.309c.2636-.2636.8786.4393.8786.8787,0,.1757.3515.3514.3515.3514-.0879-.0879-5.1839,2.7238-1.23-1.23Zm8.7863-8.7863L95.9,192.2465l-2.1965-1.6694,2.9-.9665Zm2.9-2.8994-2.9,2.8994Zm2.8995-5.8868-2.8995,5.8868Zm2.8994-2.9-2.8994,2.9Zm2.9-2.8995-2.9,2.8995Zm0,0c2.3723-8.6105.3515-6.15,8.7863-11.7736C114.703,171.7744,116.7238,169.3143,108.2889,174.9375Zm14.6731-17.66-.2636,5.36-5.5353.5272,5.8868-5.8868Zm5.8868-5.8868-.2636,5.36-5.5353.5272,5.8868-5.8868Zm0,0c5.6232-8.5227,13.7945-17.924,23.4594-20.56C146.685,139.3531,138.5137,148.7544,128.8488,151.39Zm23.4594-20.56c5.7989-8.6985,13.5308-14.9367,23.4593-17.66C171.1108,120.2868,160.04,128.7217,152.3082,130.83Zm23.4593-17.66.7029-2.7237,2.1966,1.6694-2.8995.9665ZM252.12,629.9791l8.7863.7907c13.97,12.4765,98.5821,15.64,117.3848,6.6776h2.8995c43.6678,5.1839,141.2834-54.3871,174.9349-99.6365,42.35-56.8472,77.495-123.0079,77.495-198.57-3.6024,5.6232-7.5562,38.1325-10.0163,48.7639-4.7445,20.3842-5.799,26.71-15.376,46.3037l-7.82.2636-7.82,13.443c1.23-14.2338,9.3135-30.137,12.4765-46.2159,3.6024-18.1876,8.0834-33.2121-.7029-50.6968-16.1667,11.51-17.309,71.2567-32.2456,88.1264.5271-26.271,21.7021-67.83,9.8406-93.4861-7.0291,9.4892-8.4349,30.84-11.51,44.81a383.9382,383.9382,0,0,1-12.5644,43.2285C540.662,482.9845,493.6554,526.0373,447,548.97c-42.7013,20.9992-70.9932,17.3089-85.93,28.5554-30.0491-8.1713-37.7811-4.3932-43.7558-5.0082-5.7111-.615-3.69-2.2844-12.3008-3.1631-16.0789.4393-6.59,0-11.51-3.7781-6.3261,0-.9665.7908-3.163-2.8995-8.1713,3.1631-26.5346-4.5688-35.2331-9.1377l-9.7527-5.5354c-17.5726-10.3678-32.8607-18.0118-45.513-32.9485-6.7654-7.9956-5.7111-7.0291-14.6731-5.7111C181.04,486.06,138.69,445.467,140.8862,407.2467c.615-10.7193,7.2926-7.9077-.2636-17.8362,0-35.5844.8786-81.4488,14.6731-111.5858l8.7863-8.7862h-2.8995l2.8995-5.8869,2.8994-5.8868,5.8868-8.7862c3.3388-12.213,15.7275-28.204,26.4468-35.233l-1.7573-6.414c-19.4176,1.3179-21.1749,9.4013-35.848,11.8615,5.1839-31.6307,47.9731-57.4623,72.3989-76.88L222.95,138.65l23.4593-13.443-5.8867-1.4058,5.8867-1.5815,5.799-7.9077c-43.3164,4.7446-97.7913,53.7721-125.6438,90.5866C75.78,272.1137,74.9012,360.943,71.1231,368.6749l-.7907-34.9694c-9.7528-7.38,11.0707-63.5248,15.8153-75.2106,6.7654-16.7818,31.8064-54.5628,34.0908-62.8219l-5.5353-1.1422c35.0572-36.6388,52.8933-62.3826,109.2135-89.0051,24.1622-11.3343,48.5-18.0118,74.244-22.6686,50.2576-9.05,54.1235-1.6694,94.98-5.36-18.2755-10.28-65.8971-9.3135-88.5657-5.8868-6.7654,1.0543-26.271,3.3388-31.5428,2.9873,14.6731-8.2591,59.0439-9.577,68.0058-19.9448-16.5181-19.0663-89.3564,2.46-110.18,10.8071C143.9614,100.6933,86.587,149.4572,50.6511,237.5836c-32.7729,80.57-21.6143,224.7531,30.6641,281.8639,27.0618,29.522,38.7475,44.195,73.5412,67.3908,24.953,16.6061,68.9723,41.3834,97.44,43.3164Z" transform="translate(-32.1661 -46.9956)"/><path class="cls-1" d="M245.3548,547.7394l9.7528,5.5354c.4393-19.0662,15.7274-63.437,23.02-82.3274,16.0789-41.12,51.7512-96.737,83.2939-128.1041,10.0163-10.0163,49.73-46.04,55.09-53.5963-34.3544,3.0752-89.3565,73.7169-109.2135,105.084-13.5309,21.4385-27.94,50.3454-34.618,73.98-3.9538,14.0581-18.8026,73.7169-27.3253,79.34Zm48.1489,17.5726c4.92,3.866-4.5689,4.2174,11.51,3.7781,4.5688-21.7021,8.1712-44.1071,15.0245-65.1942,5.5353-17.2211,19.5934-41.3834,23.1958-56.1443-21.8778,15.6395-41.12,85.6662-41.12,111.5858-2.9873,10.1042,2.7237,2.9873-8.5227,5.8868Zm29.17,202.6995c-7.029-29.0825-21.8778-39.9776-34.9694-108.95-1.1422-5.9746.2636-3.3387-1.933-9.7527-4.0417-12.0373-.9665-2.9874-4.2175-7.5563-5.7111,9.8407,8.0834,58.2531,11.6858,67.6544,5.0082,13.0915,18.3633,50.7847,29.434,58.6924ZM498.4876,168.0842c-21.9657-30.4006-90.938-60.45-128.3675-57.4623l17.7482,4.7446c68.7966,16.3425,100.3394,51.3119,110.6193,52.8056ZM263.9817,101.2206,336.82,93.1372c4.7446.3514,6.8533,6.15,21.0871-3.69C329.8789,89.447,284.19,87.1625,263.9817,101.2206Z" transform="translate(-32.1661 -46.9956)"/><path class="cls-2" d="M457.6314,95.3338c-10.28-14.4974-43.7557-24.6895-61.4162-22.7565C398.1482,74.071,451.4808,93.84,457.6314,95.3338Z" transform="translate(-32.1661 -46.9956)"/><path class="cls-1" d="M495.8517,817.9176l-43.6678-34.53C455.4348,802.5416,476.7855,813.2609,495.8517,817.9176ZM290.3406,562.4125c2.8995-4.481,6.0625-27.4132,8.1712-35.848,2.9873-11.8615,8.347-22.7565,9.4014-34.618C296.14,505.2138,290.3406,542.5555,290.3406,562.4125Z" transform="translate(-32.1661 -46.9956)"/><path class="cls-2" d="M199.4026,212.8063l-8.7863,17.6605L222.95,201.1206c-15.376,1.3179-12.4765,4.481-23.4593,11.7736Z" transform="translate(-32.1661 -46.9956)"/><path class="cls-1" d="M398.939,712.2187c.8787,10.1921,2.8995,16.43,8.7863,23.9865C412.47,727.77,407.11,718.0176,398.939,712.2187ZM381.3665,637.36H378.467c-3.7781,10.5435-5.1839,15.6395,5.6232,18.2755Zm.7029-98.7578c5.36-7.2048,7.4683-17.66,7.5562-25.656C383.6509,520.0627,381.015,527.0918,382.0694,538.6018Zm-115.1-366.3c1.8451,4.0417-4.13,8.1712,9.577,3.8659,3.6024-1.1422,8.6106-5.0082,10.6314-6.5018L266.969,172.39ZM707.1619,844.3644h8.7862l8.7863-2.9v-2.8995c-11.51.2636-9.6649-1.23-17.5725,5.8868Zm-152.6177,2.8995L568.9537,847l-20.2963-5.5354ZM434.1721,189.347c-6.3261-5.6232-6.59-7.4683-14.4095-3.69ZM548.6574,841.4649l-17.5726-5.8868C538.9924,842.6072,537.2352,841.2014,548.6574,841.4649ZM328.4732,165.8877l17.4846-.8786-17.4846-2.1966ZM516.3239,245.14c-12.2129,0-5.711-1.0544-11.7736,2.8994C516.7633,247.9516,510.2614,249.0938,516.3239,245.14ZM419.4991,110.0948c-6.0626-3.9538.4393-2.9-11.7736-2.9C413.788,111.1491,407.2861,110.0948,419.4991,110.0948Zm-111.498,381.764,5.8868-11.6858-5.36,3.3388Zm99.7244-384.7513c-2.9873-1.933,1.1422-5.7111-8.5227-.7029Zm-161.4041,0c2.8116,2.8116,9.2257-3.69,3.4267-1.5816C249.66,105.5259,242.28,103.1536,246.3214,107.1075Zm17.66-5.8868-8.6106.4393C265.0362,106.9317,260.5552,103.4172,263.9819,101.2207ZM164.17,268.6872l2.8995-5.8868H164.17Zm2.8995-5.8868,2.9873-5.8868h-2.9873Zm5.8868-8.7863,2.9-5.8868h-2.9Zm73.3654-132.2336v2.9874l5.8868-1.4058Zm376.4922,202.436,2.548-11.4222c-.7907.6151-1.4937.7029-1.5815,1.7573Zm-294.34,455.5688.7907,2.6359,2.1966-1.6694ZM184.73,236.3537l-2.7238.7908,1.6695,2.1087ZM343.2341,447.84l2.6359-.7907-1.6694-2.1088Zm55.7051,264.3792-.7029-2.7237-2.1966,1.6694Zm99.8122-461.192-2.636.7908,1.6695,2.1087ZM316.7875,471.2988l2.6359-.7029-1.67-2.1965Zm196.6369,355.493.7908,2.6359,2.1087-1.6694ZM440.0589,192.3343l.7908,2.6359,2.1087-1.6694ZM178.8428,245.14l2.6359-.7029-1.6694-2.1966ZM724.7346,838.4776l2.7237-.7029-1.6694-2.1966ZM328.4732,779.7852l-.7029-2.7237-2.1966,1.6694ZM484.0783,145.3277l.7907,2.6359,2.1088-1.6694Z" transform="translate(-32.1661 -46.9956)"/><path class="cls-2" d="M222.8619,201.1206l2.7238-.7908-1.7573-2.1087ZM120.15,195.2338l2.6359-.7908-1.6694-2.1087Z" transform="translate(-32.1661 -46.9956)"/><path class="cls-1" d="M319.6867,465.5c.2636.2636.8787-1.23.8787-.8786,0,.1758.3514-.3514.3514-.3514C320.8289,464.3576,315.7329,461.546,319.6867,465.5Zm70.4661,44.0193c.2635.2636.8786-1.23.8786-.8786,0,.1757.3514-.3514.3514-.3514C391.295,508.3769,386.199,505.5653,390.1528,509.5191ZM70.2442,321.4927c.2636.2636.8786-1.23.8786-.8786,0,.1757.3515-.3515.3515-.3515-.0879.0879-5.1839-2.7237-1.23,1.23Zm563.5521,17.66,3.0753-5.2717Zm-319.9085,141.02,2.8995-8.8741ZM172.9558,254.014l-2.9,2.8995Zm331.6822-5.8868-5.8868,2.9ZM178.8426,245.14l-2.9873,2.9873Zm8.7863-11.6858-2.8995,2.8995Zm2.9-2.9873-2.9,2.9873ZM516.3238,245.14l5.8868-1.318ZM463.5183,98.3211l-5.8868-2.9873Zm-23.4594,94.0132-5.8868-2.9873ZM322.6742,768.0115l1.3179,5.8868Zm29.3461,8.7863-1.4058-5.8868ZM469.4051,101.2206l-5.8868-2.9ZM354.92,779.7852l-2.8995-2.9873Zm70.466-666.791-5.8867-2.8994Zm20.56,8.7863-5.8868-2.9Zm55.793,699.1245-5.8868-2.9873ZM434.1721,115.8937l-8.7863-2.8995Zm73.3655,707.9108-5.7989-2.8995Zm5.8868,2.9873-5.8868-2.9873ZM440.0589,118.881l-5.8868-2.9873Zm85.1391,713.71-5.36-3.0752Zm-41.12-687.2631-8.7863-5.8868Zm47.0066,690.25-5.8867-2.9873ZM475.292,139.4409l-2.9873-2.9874Z" transform="translate(-32.1661 -46.9956)"/><path class="cls-2" d="M70.2442,333.2663l3.0752-5.2718Z" transform="translate(-32.1661 -46.9956)"/></svg>