<svg id="Capa_1" data-name="Capa 1" xmlns="http://www.w3.org/2000/svg" viewBox="0 0 1793.5631 202.2505"><defs><style>.cls-1{fill:#fff;}.cls-2{fill:#ffff01;}</style></defs><title>Mesa de trabajo 1HENRY</title><path class="cls-1" d="M171.5713,0V202.2406h-62.08V123.5667H62.0792v78.6739H0V0H62.0792V74.3764h47.4121V0Z"/><path class="cls-1" d="M358.8471,153.94v48.3H206.6855V0H358.8471V46.6708H267.58V76.0071h73.7846v44.892H267.58V153.94Z"/><path class="cls-1" d="M556.3465,202.2406H505.8232l-55.389-89.3583a340.7113,340.7113,0,0,1-21.5068-41.7659q4.89,19.56,4.8893,33.1895v97.9347H383.4422V0H442.114l47.12,74.0759q14.0772,22.0786,21.33,38.8235a294.2011,294.2011,0,0,1-4.7412-53.0419V0h50.5233Z"/><path class="cls-1" d="M771.6256,202.2406H702.805L673.265,124.9H653.6888v77.3409H591.61V0H697.2485Q732.2132,0,751.55,16.3718q19.3344,16.3725,19.3348,43.1887,0,17.4834-7.1117,30.8922-7.1116,13.4117-28.7438,23.6317ZM653.6888,81.637H680.21q11.7027,0,18.8165-4.8893,7.1116-4.89,7.1117-14.3716,0-19.4082-23.8538-19.41H653.6888Z"/><path class="cls-1" d="M962.7923,0,899.49,116.6038v85.6368H839.1865V116.6038L771.1442,0h67.9312l35.4482,66.6658L908.5078,0Z"/><path class="cls-2" d="M1225.371.0107l-53.6408,202.24h-52.154L1091.2846,90.6849l-26.7179,111.5656h-54.3743L956.4575.0107h58.4148l28.29,116.4008L1070.7605.0107h48.7374l30.0234,116.6287L1177.8556.0107Z"/><path class="cls-2" d="M1346.8149,202.2505l-11.4291-39.8546H1281.208l-12.1427,39.8546h-50.3979L1281.1012.0107h65.6354l63.4293,202.24Zm-55.0536-84.0075h32.7208L1308.12,59.5762Z"/><path class="cls-2" d="M1790.3119,153.95v48.3H1638.15V.0107h152.1624V46.6815h-91.2681V76.0171h73.7847v44.8934h-73.7847v33.04Z"/><path class="cls-2" d="M1572.2179,114.0943q21.63-10.2222,28.743-23.6317,7.1118-13.4073,7.1126-30.8914,0-26.8147-19.335-43.1887Q1569.4029.0131,1534.4368.0107h-105.64v202.24h62.0793V124.9111h19.5769l29.5393,77.3394h68.8213Zm-16.9554-51.7822A21.0578,21.0578,0,0,1,1534.2047,83.37h-42.711c-5.1211,7.6469-13.8318,15.4816-27.5162,23.216a65.016,65.016,0,0,0,13.898-25.7408A21.0514,21.0514,0,0,1,1466.82,62.3121h0a21.03,21.03,0,0,1,10.4608-18.1762,89.2546,89.2546,0,0,0-13.3036-26.0976s15.1839,9.21,25.1369,23.2162h45.09a21.0578,21.0578,0,0,1,21.0578,21.0576Z"/><path class="cls-2" d="M971.9321,58.2519C477.04,75.2745-13.6586,118.2341-13.67,116.9548v53.63c255.1607-44.56,665.378-71.7507,992.6076-85.9664l-7.0056-26.367Z"/><path class="cls-2" d="M1310.8123,51.4691c-109.1419.283-224.1238,2.8356-338.88,6.7828l7.0056,26.367c230.4847-10.0128,422.1641-13.6509,490.1082-12.8841l-2.2162-9.9235,2.3842-9.2389Z"/></svg>